<?xml version="1.0" encoding="UTF-8"?>
<svg width="600px" height="600px" viewBox="0 0 600 600" version="1.1" xmlns="http://www.w3.org/2000/svg" xmlns:xlink="http://www.w3.org/1999/xlink">
    <title>assets/icon</title>
    <g id="/assets/icon" stroke="none" stroke-width="1" fill="none" fill-rule="evenodd">
        <g id="print-icon" transform="translate(1, 22)" fill="#000000" fill-rule="nonzero">
            <path d="M112.931217,143.421011 L112.931217,16.319986 L112.931217,2.58196793 C112.931217,1.16919303 114.099471,0 115.511111,0 L129.238095,0 L396.914286,0 C397.352381,0 397.741799,0.0974327521 398.08254,0.292298256 L407.477249,4.18960834 L406.503704,6.57671077 L407.477249,4.18960834 C407.866667,4.33575747 408.15873,4.57933935 408.450794,4.87163761 L471.390476,67.0337335 L475.479365,71.0771927 L473.678307,72.928415 L475.479365,71.0771927 C475.966138,71.5643564 476.258201,72.2463857 476.258201,72.928415 L476.258201,78.6769473 L476.258201,143.518444 C476.258201,144.931219 475.089947,146.100412 473.678307,146.100412 L446.37037,146.100412 C444.95873,146.100412 443.790476,144.931219 443.790476,143.518444 L443.790476,110.001577 L385.134392,110.001577 L371.407407,110.001577 C369.995767,110.001577 368.827513,108.832384 368.827513,107.419609 C368.827513,107.322176 368.827513,107.27346 368.827513,107.176027 L368.827513,93.6815912 L368.827513,93.6815912 L368.827513,32.5912556 L145.496296,32.5912556 L145.496296,143.421011 C145.496296,144.833786 144.328042,146.002979 142.916402,146.002979 L115.462434,146.002979 C114.099471,146.002979 112.931217,144.833786 112.931217,143.421011 L112.931217,143.421011 Z M150.704762,330.540612 L447.489947,330.540612 L447.489947,330.540612 C447.684656,330.540612 447.879365,330.540612 448.074074,330.589328 C452.114286,330.686761 456.008466,331.514939 459.561905,332.97643 C463.407407,334.584071 466.912169,336.922457 469.832804,339.845439 C472.704762,342.719706 475.04127,346.227285 476.647619,350.075878 C478.107937,353.632174 478.93545,357.480768 479.032804,361.524227 C479.081481,361.719092 479.081481,361.913958 479.081481,362.108823 L479.081481,362.108823 L479.081481,407.122755 L543.140741,407.122755 L543.140741,407.122755 C543.33545,407.122755 543.481481,407.122755 543.67619,407.171471 C546.450794,407.122755 549.17672,406.489442 551.659259,405.466398 C554.433862,404.297205 556.916402,402.592132 559.009524,400.497328 C561.102646,398.402523 562.806349,395.917988 563.974603,393.141155 C564.996825,390.65662 565.62963,387.928503 565.678307,385.102953 C565.62963,384.956804 565.62963,384.761938 565.62963,384.615789 L565.62963,384.615789 L565.62963,212.159818 L565.62963,212.159818 C565.62963,211.964952 565.62963,211.818803 565.678307,211.623938 C565.62963,208.847104 564.996825,206.118987 563.974603,203.634452 C562.806349,200.906335 561.102646,198.373083 559.009524,196.278279 C556.916402,194.183475 554.433862,192.478402 551.659259,191.309209 C549.17672,190.237449 546.450794,189.652852 543.627513,189.604136 C543.481481,189.652852 543.286772,189.652852 543.140741,189.652852 L543.140741,189.652852 L55.0539683,189.652852 L55.0539683,189.652852 C54.8592593,189.652852 54.6645503,189.652852 54.5185185,189.604136 C51.7439153,189.652852 49.0179894,190.286165 46.5354497,191.309209 C43.8095238,192.478402 41.2783069,194.183475 39.1851852,196.278279 C37.0920635,198.373083 35.3883598,200.857619 34.2201058,203.634452 C33.1978836,206.118987 32.5650794,208.847104 32.5164021,211.672654 C32.5650794,211.818803 32.5650794,212.013669 32.5650794,212.159818 L32.5650794,212.159818 L32.5650794,384.664505 L32.5650794,384.664505 C32.5650794,384.859371 32.5650794,385.054236 32.5164021,385.200386 C32.5650794,387.977219 33.1978836,390.705336 34.2201058,393.189871 C35.3883598,395.966705 37.0920635,398.45124 39.1851852,400.546044 C41.2783069,402.640848 43.8095238,404.345921 46.5354497,405.515114 C49.0179894,406.586875 51.7439153,407.171471 54.5671958,407.220188 C54.7132275,407.171471 54.9079365,407.171471 55.0539683,407.171471 L55.0539683,407.171471 L119.113228,407.171471 L119.113228,362.15754 L119.113228,362.15754 C119.113228,361.962674 119.113228,361.767809 119.161905,361.572943 C119.259259,357.529484 120.086772,353.632174 121.54709,350.124595 C123.056085,346.42215 125.295238,343.06072 128.021164,340.23517 C128.118519,340.089021 128.215873,339.942872 128.361905,339.845439 C131.233862,336.971173 134.738624,334.632787 138.584127,333.025147 C142.137566,331.563655 145.983069,330.735477 150.071958,330.638044 C150.266667,330.540612 150.461376,330.540612 150.704762,330.540612 L150.704762,330.540612 L150.704762,330.540612 Z M479.032804,439.762727 L479.032804,524.383072 L479.032804,524.383072 C479.032804,524.577937 479.032804,524.772803 478.984127,524.967668 C478.886772,529.011128 478.059259,532.908438 476.598942,536.464733 C474.992593,540.313327 472.656085,543.820906 469.73545,546.743889 C466.863492,549.618155 463.35873,551.956541 459.513228,553.564181 C455.959788,555.025672 452.114286,555.853851 448.074074,555.951284 C447.879365,556 447.684656,556 447.489947,556 L447.489947,556 L150.704762,556 L150.704762,556 C150.510053,556 150.315344,555.951284 150.120635,555.951284 C146.080423,555.853851 142.234921,555.025672 138.681481,553.564181 C134.835979,551.956541 131.379894,549.618155 128.459259,546.743889 C125.538624,543.820906 123.202116,540.362043 121.595767,536.464733 C120.13545,532.908438 119.307937,529.059844 119.210582,525.016385 C119.161905,524.821519 119.161905,524.626654 119.161905,524.431788 L119.161905,524.431788 L119.161905,439.762727 L55.0539683,439.762727 L55.0539683,439.762727 C54.8592593,439.762727 54.6645503,439.762727 54.4698413,439.71401 C47.2169312,439.616578 40.3047619,438.155086 34.0253968,435.573118 C27.2592593,432.796285 21.2232804,428.704109 16.1608466,423.637606 C11.0984127,418.571103 7.00952381,412.530272 4.23492063,405.758696 C1.60634921,399.425567 0.146031746,392.556558 0.0973544974,385.297818 C0,385.054236 0,384.859371 0,384.664505 L0,384.664505 L0,212.159818 L0,212.159818 C0,211.964952 0,211.770087 0.0486772487,211.575221 C0.146031746,204.316481 1.60634921,197.447472 4.18624339,191.114343 C6.96084656,184.342767 11.0497354,178.301936 16.1121693,173.235433 C21.1746032,168.16893 27.210582,164.076755 33.9767196,161.299921 C40.3047619,158.669237 47.168254,157.207746 54.421164,157.159029 C54.615873,157.110313 54.810582,157.110313 55.005291,157.110313 L55.005291,157.110313 L542.994709,157.110313 L542.994709,157.110313 C543.189418,157.110313 543.384127,157.110313 543.578836,157.159029 C550.831746,157.256462 557.743915,158.717953 564.02328,161.299921 C570.789418,164.076755 576.825397,168.16893 581.887831,173.235433 C586.950265,178.301936 591.039153,184.342767 593.813757,191.114343 C596.442328,197.447472 597.902646,204.316481 597.951323,211.575221 C598,211.770087 598,211.964952 598,212.159818 L598,212.159818 L598,384.664505 L598,384.664505 C598,384.859371 598,385.054236 597.951323,385.249102 C597.853968,392.507842 596.393651,399.376851 593.813757,405.70998 C591.039153,412.481556 586.950265,418.522387 581.887831,423.58889 C576.825397,428.655393 570.789418,432.747569 564.02328,435.524402 C557.695238,438.155086 550.831746,439.616578 543.578836,439.665294 C543.384127,439.71401 543.189418,439.71401 542.994709,439.71401 L542.994709,439.71401 L479.032804,439.71401 L479.032804,439.762727 Z M435.515344,77.2641724 L401.44127,43.6011566 L401.44127,77.2641724 L435.515344,77.2641724 L435.515344,77.2641724 Z M446.467725,363.131867 L151.678307,363.131867 L151.678307,523.360028 L446.467725,523.360028 L446.467725,363.131867 L446.467725,363.131867 Z" id="Shape"></path>
        </g>
    </g>
</svg>