<?xml version="1.0" encoding="UTF-8"?>
<svg width="600px" height="600px" viewBox="0 0 600 600" version="1.1" xmlns="http://www.w3.org/2000/svg" xmlns:xlink="http://www.w3.org/1999/xlink">
    <title>drivers/ipp/assets/icon</title>
    <g id="/drivers/ipp/assets/icon" stroke="none" stroke-width="1" fill="none" fill-rule="evenodd">
        <g id="PrinterHeart" transform="translate(0, 66)" fill="#000000" fill-rule="nonzero">
            <path d="M275.28944,0 C278.72809,0.327018732 282.171694,0.54503122 285.630163,0.569805367 C329.708298,2.74497542 373.72202,6.57505845 417.473137,12.5704019 C446.954354,16.9157871 476.44548,22.0143065 505.074467,30.4672452 C505.619497,30.6902125 506.422179,30.7793995 506.605508,31.4681207 C507.125765,33.1924013 507.54197,34.9563205 507.883853,36.7301494 C508.904547,37.1017616 509.994609,37.1612196 511.079716,37.2157227 C525.275294,38.6724425 539.480781,40.0399754 553.661494,41.6403852 C556.649254,41.8435332 559.666743,42.9930536 561.75768,45.1979526 C563.303586,46.8280915 564.081493,49.0676743 564.185545,51.2923926 C564.155816,53.4081047 563.31845,55.3949913 562.704052,57.3868327 C555.613695,79.8470738 548.6373,102.341999 541.616311,124.822059 C537.583082,137.982086 533.336796,151.077699 529.422483,164.27241 C546.06079,167.89439 562.679278,171.625376 579.173895,175.861755 C582.870195,176.966682 586.863785,177.61081 590.034874,179.969309 C593.305059,182.322853 595.346448,186.118252 595.941027,190.067251 C596.084717,191.717209 597.402701,192.891504 597.922957,194.417591 C599.83552,199.317917 599.944527,204.683997 599.865249,209.876658 C599.870204,239.759234 599.865249,269.641809 599.870204,299.524384 C599.904888,312.411895 599.771108,325.304361 599.984165,338.191872 C600.063442,341.130086 599.914798,344.390364 597.883319,346.729043 C572.063719,378.033654 546.536453,409.586007 520.345241,440.578464 C517.585403,443.947748 514.325127,446.94542 510.52973,449.115635 C504.138004,452.762389 497.017919,454.828553 490.011794,456.934356 C483.966906,458.752778 477.708961,459.748699 471.431196,460.234272 C468.963692,460.318504 466.496189,460.264001 464.053459,460.610839 C460.258062,460.130221 456.413117,460.477059 452.62763,459.932027 C440.562628,459.119435 428.715638,456.602382 416.824055,454.541173 C410.293593,453.679033 403.12396,452.475009 398.362372,447.480541 C387.868049,446.544079 377.388592,445.260778 366.89427,444.428367 C364.327669,445.974273 362.008811,447.971069 359.46203,449.576434 C346.014631,458.53972 330.877637,465.194056 314.873548,467.810206 C308.333177,468.954771 301.67389,469.048913 295.054242,468.865585 C288.865664,468.711985 282.776183,467.517871 276.681746,466.586363 C244.807348,461.136051 213.200511,454.268657 181.618448,447.36658 C125.965839,435.118242 70.5114222,422.007764 15.0966444,408.743686 C12.4012189,408.228384 10.7066682,404.938377 11.9899683,402.485737 C12.8471532,400.573173 15.0421413,399.453381 17.0983942,399.953819 C32.7754648,402.619517 49.002521,401.544319 64.2881603,397.213798 C63.8174518,396.985876 63.3368337,396.767864 62.8215317,396.678677 C52.5551315,395.370602 42.3234151,393.571999 32.3543045,390.747746 C26.150862,388.998691 19.7938198,387.45774 14.0363115,384.469978 C10.6769393,382.725878 7.3869346,379.827302 7.02027745,375.8238 C5.57842298,343.944429 3.77982102,312.074967 2.21905072,280.20055 C2.15463798,281.146923 2.14968315,282.10816 1.98617388,283.054532 C1.50555573,281.468987 2.31319242,279.863622 2.10508972,278.253302 C1.4807816,265.341017 0.797015562,252.428732 0.281713623,239.511492 C-0.273226928,231.44503 -0.293046233,223.046595 2.93750054,215.48057 C4.92438591,210.758618 8.10042959,206.4826 12.3368061,203.559251 C25.0707098,194.467139 37.9928969,185.652498 50.8903099,176.798218 C67.7268098,165.322834 84.5781742,153.862313 101.707009,142.832863 C110.922986,136.862294 120.416433,131.322795 130.127893,126.209411 C134.661559,123.964874 139.304231,121.680697 144.363109,120.947383 C149.3328,120.44199 154.287626,121.299175 159.227588,121.75502 C173.14074,123.053185 187.019209,124.708098 200.937316,125.981489 C200.625162,126.110315 200.317963,126.23914 200.010763,126.367966 C202.017468,126.090495 204.043992,126.234185 206.060606,126.219321 C208.126769,124.688279 210.1087,122.919405 212.566293,122.037445 C214.94461,121.586556 217.352656,122.230683 219.745837,122.309961 C222.565133,122.384283 225.359655,122.825263 228.183906,122.954088 C230.368984,123.073004 232.405418,124.376124 233.436022,126.308508 C235.046341,128.904838 235.07607,132.051155 235.001747,135.004233 C243.122707,115.249329 250.881966,95.3408249 258.854281,75.5264626 C265.062679,59.9534342 271.300805,44.3853606 277.479473,28.7974677 C277.930363,27.5637153 278.619083,26.3795111 278.767728,25.0565716 C278.425845,18.892764 277.727215,12.7339112 276.493463,6.67910986 C276.087167,4.45439152 275.447995,2.26435698 275.28944,0 M290.603717,13.2819442 C290.92022,16.3383246 291.439851,19.3710853 291.657152,22.4369135 C293.612856,44.5968522 290.112429,66.9551957 283.522555,88.113662 C277.919982,105.828386 270.267226,122.910104 260.720176,138.858079 C278.638018,141.300349 296.607824,143.426116 314.539838,145.778631 C371.028516,152.91176 427.498298,160.210226 483.991701,167.281944 C488.002312,154.310042 491.446052,141.106668 493.491511,127.676545 C493.552922,127.605687 493.67102,127.459245 493.727707,127.388386 C494.677216,120.132435 496.061325,112.890656 496.25973,105.563846 C496.36838,105.852006 496.481754,106.140165 496.599853,106.433048 C496.528994,104.066361 496.642368,101.690226 496.958871,99.342435 C497.199791,96.5364227 497.039177,93.7067908 497.412367,90.9102264 C497.686355,85.0620056 497.327337,79.2043368 497.634392,73.356116 C497.525742,74.508754 497.435987,75.666116 497.284822,76.8140301 C497.176171,72.6900424 497.228134,68.5518829 496.717951,64.4515148 C496.727399,61.4754411 495.985743,58.5560546 496.103841,55.5752571 C495.990466,55.8303491 495.88654,56.0901651 495.792062,56.349981 C495.570037,51.0355638 494.44102,45.7825577 493.392308,40.5767908 C473.495142,34.8041528 453.111412,30.8927417 432.68989,27.5009626 C413.378491,24.3878951 393.967889,21.9220056 374.519495,19.8434779 C367.117107,19.1585086 359.733615,18.1806559 352.307607,17.8027417 C352.775275,17.6751957 353.247667,17.5523736 353.729508,17.4342755 C350.573927,17.8216375 347.446689,17.1224963 344.310004,16.9855025 C329.859522,15.7761773 315.404316,14.7132939 300.92549,13.9621896 C297.500645,13.4756252 294.004942,13.9243982 290.603717,13.2819442 M512.684668,47.3215777 C514.246726,58.1462959 515.09796,69.0675459 514.992652,80.0063471 C515.093572,90.4493261 514.088765,100.852815 513.088345,111.229977 C513.026916,111.295794 512.904058,111.431816 512.842628,111.497633 C510.9822,127.640373 507.191137,143.515456 502.491799,159.052678 C503.597526,159.087781 504.927031,159.741564 505.857245,158.872778 C509.661471,155.625801 513.39988,152.304232 517.261147,149.123072 C518.902185,149.522363 520.556387,149.90849 522.232528,150.171758 C532.390294,117.40362 542.609489,84.6574218 552.868174,51.9287743 C551.385097,51.1389692 549.669465,51.301318 548.063529,51.0248862 C536.282276,49.6778297 524.470308,48.6159805 512.684668,47.3215777 M242.993882,139.656818 C243.419997,139.795553 244.272227,140.082933 244.698342,140.221668 C245.079864,139.760869 245.471295,139.30007 245.803269,138.799632 C250.911694,130.44579 255.445361,121.750065 259.528138,112.851192 C268.119806,93.9336534 274.575945,73.9359624 277.454699,53.3189178 C266.004096,82.1114307 254.464305,110.86926 242.993882,139.656818 M141.573936,134.000348 C141.51054,134.072802 141.383746,134.21318 141.320349,134.281106 C138.114284,134.647901 135.23426,136.250935 132.354235,137.595853 C121.187348,143.328735 110.486879,149.917474 100.012828,156.827726 C85.9885571,165.988564 72.1318353,175.412046 58.2932268,184.85817 C47.0357724,192.59258 35.764733,200.304349 24.6476571,208.238006 C24.0001045,208.794992 23.0536813,209.229713 22.8861327,210.153495 C22.6144323,211.358034 22.3653735,213.019936 23.6831206,213.712773 C26.5586168,215.342976 29.8099653,216.158078 33.025087,216.814688 C43.2093247,218.866027 53.4841292,220.437362 63.7634621,221.949829 C96.4897786,198.379803 129.28402,174.904872 162.060149,151.402771 C168.404354,146.788389 174.884409,142.346085 181.151632,137.623023 C169.930404,136.477352 158.713705,135.272813 147.483421,134.190539 C145.527178,133.891668 143.543764,133.927895 141.573936,134.000348 M81.4999304,227.259849 C202.906807,243.895535 324.328066,260.396985 445.696589,277.301143 C452.398801,278.116148 459.053071,279.664657 465.836783,279.525627 C473.382764,279.607127 481.010246,277.91 487.621369,274.218507 C491.749126,271.98923 495.277615,268.849064 498.667074,265.646575 C525.154714,240.323896 550.951998,214.301273 576.955429,188.480004 C575.704158,187.219143 573.935119,186.811641 572.295522,186.327432 C563.920154,183.987889 555.444109,182.051054 546.982447,180.071072 C535.107355,177.314438 523.203498,174.692041 511.304435,172.064849 C497.367862,183.920771 483.498406,195.862988 469.643333,207.814794 C466.009373,210.916606 462.634296,214.603304 458.041507,216.281255 C455.165021,217.383909 452.072799,216.674375 449.129195,216.305226 C359.138338,205.067748 269.113921,194.050801 179.151828,182.568822 C178.533384,182.564028 177.924528,182.616764 177.315672,182.722235 C177.612908,182.602381 177.910145,182.487322 178.212176,182.377056 C174.769982,181.969554 171.337375,181.51411 167.919151,180.943607 C165.637139,180.44981 162.97639,179.27045 162.473005,176.724758 C161.77306,174.663276 163.144185,172.62097 164.764605,171.446404 C180.95922,160.237691 197.048364,148.875565 213.195038,137.590146 C210.956173,137.508646 208.722102,137.532616 206.483237,137.561381 C164.8509,167.496028 123.108297,197.28685 81.4999304,227.259849 M191.222893,173.640739 C199.423795,174.853288 207.670977,175.755758 215.890391,176.847978 C225.276073,177.972595 234.638615,179.342498 244.04281,180.291248 C243.607773,180.379181 243.172737,180.467114 242.742328,180.555047 C245.375688,180.281992 247.967395,180.980828 250.577614,181.216859 C266.905369,183.211549 283.209984,185.414501 299.551623,187.219441 C299.13047,187.31663 298.713946,187.418447 298.297421,187.520264 C299.764513,187.31663 301.24086,187.487868 302.694067,187.714642 C351.806917,193.84681 400.933651,199.881789 450.046501,206.050981 C452.064331,206.208335 453.58233,204.565377 455.081818,203.459273 C462.574629,196.753226 470.275701,190.287839 477.879585,183.720634 C479.12453,182.605274 480.568481,181.675036 481.517231,180.268108 C400.216304,170.007719 318.938517,159.585347 237.646847,149.283306 C234.087877,148.894549 230.552048,148.209598 226.969939,148.0615 C215.126763,156.683559 203.038301,164.981655 191.222893,173.640739 M518.108673,280.768328 C512.908242,285.983329 507.761224,291.407124 501.39543,295.223689 C493.301016,300.336721 483.822733,302.924799 474.320171,303.570604 C459.714293,304.527173 445.142404,302.604324 430.687051,300.710608 C398.095742,296.563857 365.548134,292.101486 332.990815,287.70224 C245.243862,275.737843 157.5309,263.559796 69.8227927,251.318625 C63.0539779,250.255231 56.1880496,250.03187 49.4143791,249.012177 C37.6247936,247.341823 25.5827128,245.181045 15.0556034,239.339661 C16.4880284,273.368271 18.4205881,307.372602 20.1055083,341.386645 C20.5667977,352.12741 21.4019742,362.86332 21.5427889,373.608941 C22.8683889,375.211316 24.8446498,376.002792 26.6995187,376.818546 C31.4289488,378.692839 36.3768844,379.95046 41.2714076,381.314906 C46.8457256,382.868724 52.5220129,384.043799 58.2225786,385.014935 C64.0785259,385.922947 69.939329,387.01062 75.8632558,387.36994 C75.5719151,382.072393 75.4311005,376.774845 75.3291312,371.472442 C74.7804397,365.839852 75.1688939,360.158706 74.6202023,354.526116 C74.4356865,349.505343 74.5765012,344.46029 74.1152118,339.454084 C74.0278096,327.300315 73.2120557,315.165969 73.5373862,303.007345 C73.9209847,297.30192 76.2759884,291.382846 81.1850786,288.114973 C87.0895827,284.177016 94.5333367,283.749716 101.418688,283.987644 C111.834117,284.677151 122.128153,286.546588 132.475603,287.872189 C195.482877,296.869765 258.456162,306.119836 321.395456,315.617548 C340.031548,318.492111 358.696773,321.221003 377.279452,324.459742 C383.96572,325.542559 390.486895,328.664761 394.847294,333.952598 C400.363344,340.575746 402.41244,349.45193 402.354171,357.920237 C402.368738,384.126345 402.359027,410.337309 402.359027,436.543418 C402.252202,437.985555 403.048533,439.364568 404.262453,440.122054 C406.899086,441.83611 410.074699,442.365379 413.119209,442.880081 C420.61152,443.948331 427.997006,445.633252 435.489316,446.735491 C439.514673,447.225915 443.535174,448.22133 447.609088,447.983401 C446.958427,448.11936 446.312622,448.269886 445.671673,448.420412 C449.09007,448.099938 452.464766,448.97396 455.878307,448.876846 C458.94224,448.978816 462.006173,448.988527 465.070105,448.881702 C467.818419,448.949682 470.518176,448.231041 473.271345,448.371856 C473.013994,448.265031 472.761499,448.167917 472.518715,448.075659 C478.122167,447.832875 483.458557,445.885747 488.799802,444.346496 C494.378976,442.506193 500.13781,440.656179 504.823539,436.975573 C508.319627,434.139856 510.859146,430.376703 513.830821,427.040851 C525.814634,412.935099 537.492539,398.576851 549.277269,384.306006 C561.231947,369.704974 573.269172,355.176778 585.160727,340.527189 C585.058758,296.670682 585.223851,252.814175 585.078181,208.957667 C563.11595,233.221503 540.915791,257.291112 518.108673,280.768328 M97.2731429,298.422123 C93.9781305,307.22579 93.1978444,316.66132 92.1249511,325.922982 C90.9333185,336.236335 89.754408,346.549687 88.596701,356.86728 C87.9605982,362.0494 87.5365297,367.269687 86.7223182,372.422123 C88.4567584,370.903956 90.0130898,369.203441 91.5821434,367.519888 C99.4952619,359.492266 107.213309,351.278054 115.160353,343.288598 C115.304536,328.988999 115.232445,314.68516 115.198519,300.385561 C109.214912,299.808827 103.299156,298.460289 97.2731429,298.422123 M131.532968,341.759506 C135.084803,342.40964 138.708344,342.514809 142.279301,343.031092 C143.001141,343.026312 144.019366,343.513913 144.473504,342.696464 C147.083601,339.42667 149.564627,336.042147 151.801853,332.49987 C172.720873,336.309849 193.596869,340.334947 214.501547,344.221412 C257.367372,352.271606 300.237977,360.31224 343.103801,368.348093 C344.815184,368.644477 346.512225,369.117737 348.266631,369.065153 C348.008489,369.141639 347.755128,369.227686 347.501767,369.318514 C355.155184,370.446688 362.736894,372.086366 370.356848,373.458341 C372.206862,373.726043 374.028193,374.443103 375.926011,374.132377 C375.859085,374.256667 375.730015,374.495688 375.663089,374.615198 C380.73031,375.203187 385.697143,376.469993 390.735682,377.282661 C390.807388,373.472682 390.745243,369.662703 390.769145,365.857504 C390.716561,360.121024 391.108553,354.293716 389.674434,348.681526 C388.531919,344.07322 386.089136,339.613106 382.107065,336.888278 C378.880297,334.52676 374.898225,333.613704 371.016543,333.016154 C356.833103,330.58293 342.592299,328.465212 328.370616,326.275789 C322.930524,325.501364 317.519114,324.454457 312.050339,323.933393 C312.471014,323.789981 312.90125,323.66091 313.321925,323.507937 C312.399308,323.460133 311.481472,323.689593 310.568416,323.574863 C250.932957,314.58293 191.259254,305.882601 131.56643,297.282661 C131.532968,312.106682 131.595113,326.935484 131.532968,341.759506 M131.200786,374.663338 C117.304647,387.039089 101.305833,397.2983 83.6618486,403.421478 C77.8621629,405.376273 71.9423244,407.183188 65.8514991,407.936455 C65.9346818,408.084335 66.1056686,408.375475 66.1888513,408.518734 C70.4126861,409.272001 74.5625808,410.413453 78.740203,411.383919 C97.6966258,415.774122 116.611457,420.372282 135.618714,424.536043 C135.683412,424.59612 135.82205,424.711651 135.886747,424.771728 C136.515239,424.868774 137.143731,424.970442 137.767602,425.10908 C155.162037,429.120339 172.588822,433.002203 190.024849,436.847096 C196.933638,438.288931 203.786972,440.017285 210.737352,441.237299 C210.487804,441.311239 210.242877,441.389801 209.99795,441.477605 C211.883425,441.371316 213.685718,442.027536 215.52036,442.355646 C219.781165,443.312248 224.088182,444.074757 228.344366,445.063708 C246.787829,448.765342 265.222049,452.582508 283.841119,455.318297 C287.505781,455.965275 291.235141,455.831258 294.92753,456.214823 C296.475654,456.117776 298.014534,455.895956 299.5719,455.909819 C302.996256,455.909819 306.355915,455.142689 309.757165,454.819201 C309.835726,454.754503 309.997471,454.620486 310.080653,454.555788 C324.517481,451.917045 337.905281,445.096057 349.707988,436.518986 C362.910938,426.82357 374.510309,414.933052 384.025491,401.600699 C384.007005,397.353755 384.011627,393.106811 384.020869,388.864489 C348.011984,382.057364 311.979993,375.333422 275.961865,368.563267 C269.69081,367.472648 263.461347,366.049298 257.157944,365.1805 C257.402871,365.083453 257.647798,364.991028 257.897346,364.907845 C256.797485,364.935573 255.702246,364.820041 254.634734,364.575114 C222.119524,358.424208 189.571965,352.421184 157.065998,346.214823 C149.450156,356.552596 140.808393,366.137102 131.200786,374.663338 M105.160523,370.363579 C99.9728196,375.789117 94.5522396,381.001597 89.5875036,386.625328 C105.765012,377.572855 120.223195,365.592078 132.615216,351.837472 C129.800874,351.287486 126.92212,351.15866 124.073095,350.826687 C117.78542,357.352197 111.413514,363.79843 105.160523,370.363579 M386.604601,426.64899 C384.25704,429.302594 381.450417,431.519529 379.106589,434.165669 C383.827836,434.397066 388.504297,435.203224 393.225545,435.41596 C393.135971,430.082627 393.255402,424.749294 393.162097,419.41596 C390.941431,421.79338 388.926037,424.361143 386.604601,426.64899 Z" id="Shape" transform="translate(300, 234.4695) scale(-1, 1) translate(-300, -234.4695)"></path>
        </g>
    </g>
</svg>